<?xml version="1.0" encoding="UTF-8"?>
<!DOCTYPE svg PUBLIC "-//W3C//DTD SVG 1.1//EN" "http://www.w3.org/Graphics/SVG/1.1/DTD/svg11.dtd">
<svg xmlns="http://www.w3.org/2000/svg" version="1.1" width="516px" height="516px" style="shape-rendering:geometricPrecision; text-rendering:geometricPrecision; image-rendering:optimizeQuality; fill-rule:evenodd; clip-rule:evenodd" xmlns:xlink="http://www.w3.org/1999/xlink">
<g><path style="opacity:0.966" fill="#fefffe" d="M 250.5,7.5 C 276.666,5.83721 289.666,18.0039 289.5,44C 335.764,70.3805 381.931,96.8805 428,123.5C 440.76,115.737 453.593,115.57 466.5,123C 482.5,139.333 482.5,155.667 466.5,172C 464.182,173.993 461.516,175.159 458.5,175.5C 458.5,230.167 458.5,284.833 458.5,339.5C 473.161,345.465 479.661,356.465 478,372.5C 472.705,391.57 460.205,399.737 440.5,397C 436.009,395.837 431.843,394.003 428,391.5C 381.931,418.119 335.764,444.619 289.5,471C 288.371,500.816 273.371,512.483 244.5,506C 231.633,498.6 226.3,487.6 228.5,473C 181.399,445.7 134.232,418.533 87,391.5C 72.4135,401.213 58.2468,400.713 44.5,390C 32.5387,375.464 32.5387,360.964 44.5,346.5C 47.9432,343.115 51.9432,340.782 56.5,339.5C 56.6667,285.166 56.5,230.832 56,176.5C 37.4516,167.333 31.785,153 39,133.5C 50.3246,116.638 65.1579,112.804 83.5,122C 84.3333,122.833 85.1667,123.667 86,124.5C 133.085,97.0404 180.252,69.7071 227.5,42.5C 226.968,25.1844 234.635,13.5178 250.5,7.5 Z M 253.5,67.5 C 256.518,67.3354 259.518,67.502 262.5,68C 277.426,93.1858 292.093,118.519 306.5,144C 274.98,167.518 255.48,198.685 248,237.5C 221.734,214.8 207.568,185.966 205.5,151C 221.126,122.911 237.126,95.0772 253.5,67.5 Z M 287.5,67.5 C 318.275,84.7233 348.941,102.223 379.5,120C 360.626,121.052 342.626,125.552 325.5,133.5C 312.304,111.772 299.638,89.7717 287.5,67.5 Z M 199.5,82.5 C 200.043,82.56 200.376,82.8933 200.5,83.5C 190.633,103 185.133,123.667 184,145.5C 165.399,178.426 146.399,211.092 127,243.5C 102.44,226.614 87.1066,203.614 81,174.5C 92.7174,166.899 98.2174,156.066 97.5,142C 131.727,122.392 165.727,102.559 199.5,82.5 Z M 370.5,141.5 C 386.39,140.587 402.057,141.92 417.5,145.5C 417.232,160.337 423.898,170.337 437.5,175.5C 437.667,214.835 437.5,254.168 437,293.5C 424.956,275.789 409.956,261.123 392,249.5C 373.545,216.755 354.712,184.255 335.5,152C 346.867,147.081 358.534,143.581 370.5,141.5 Z M 316.5,162.5 C 331.437,186.191 345.77,210.357 359.5,235C 337.364,229.936 315.031,229.269 292.5,233C 284.979,234.547 277.645,236.713 270.5,239.5C 273.469,216.224 282.969,195.89 299,178.5C 305.029,173.301 310.862,167.967 316.5,162.5 Z M 187.5,180.5 C 196.48,210.591 213.147,235.758 237.5,256C 206.557,267.877 175.891,267.211 145.5,254C 160.155,229.852 174.155,205.352 187.5,180.5 Z M 77.5,222.5 C 88.4386,237.773 101.439,251.106 116.5,262.5C 103.667,284.833 90.8333,307.167 78,329.5C 77.5,293.835 77.3333,258.168 77.5,222.5 Z M 307.5,251.5 C 331.88,249.509 354.88,254.176 376.5,265.5C 392.5,292.833 408.5,320.167 424.5,347.5C 422.58,350.339 420.913,353.339 419.5,356.5C 390.174,357.5 360.841,357.833 331.5,357.5C 327.301,317.261 309.635,284.427 278.5,259C 288.053,255.53 297.719,253.03 307.5,251.5 Z M 134.5,272.5 C 170.626,288.238 207.292,289.572 244.5,276.5C 238.307,310.411 220.974,336.911 192.5,356C 175.922,357.153 159.255,357.653 142.5,357.5C 126.5,357.167 110.5,356.833 94.5,356.5C 93.4196,354.004 92.0862,351.67 90.5,349.5C 105.443,323.941 120.11,298.275 134.5,272.5 Z M 265.5,276.5 C 291.351,296.849 306.351,323.516 310.5,356.5C 281.839,357.667 253.172,357.833 224.5,357C 247.562,335.044 261.229,308.21 265.5,276.5 Z M 196.5,377.5 C 234.5,377.5 272.5,377.5 310.5,377.5C 307.845,407.139 295.845,432.139 274.5,452.5C 262.242,446.05 250.242,446.717 238.5,454.5C 204.833,435 171.167,415.5 137.5,396C 158.559,393.923 178.226,387.756 196.5,377.5 Z M 317.5,430.5 C 325.423,413.725 330.09,396.058 331.5,377.5C 357.169,377.333 382.835,377.5 408.5,378C 378.279,395.727 347.945,413.227 317.5,430.5 Z"/></g>
</svg>
